<?xml version="1.0" encoding="UTF-8" standalone="no"?>
<!-- Created with Inkscape (http://www.inkscape.org/) -->

<svg
   xmlns:osb="http://www.openswatchbook.org/uri/2009/osb"
   xmlns:dc="http://purl.org/dc/elements/1.1/"
   xmlns:cc="http://creativecommons.org/ns#"
   xmlns:rdf="http://www.w3.org/1999/02/22-rdf-syntax-ns#"
   xmlns:svg="http://www.w3.org/2000/svg"
   xmlns="http://www.w3.org/2000/svg"
   xmlns:sodipodi="http://sodipodi.sourceforge.net/DTD/sodipodi-0.dtd"
   xmlns:inkscape="http://www.inkscape.org/namespaces/inkscape"
   width="32px"
   height="32px"
   id="svg2985"
   version="1.1"
   inkscape:version="0.48.0 r9654"
   sodipodi:docname="New document 2">
  <defs
     id="defs2987">
    <linearGradient
       inkscape:collect="always"
       id="linearGradient3797"
       osb:paint="gradient">
      <stop
         style="stop-color:#0f4c80;stop-opacity:1;"
         offset="0"
         id="stop3799" />
      <stop
         style="stop-color:#0f4c80;stop-opacity:0;"
         offset="1"
         id="stop3801" />
    </linearGradient>
  </defs>
  <sodipodi:namedview
     id="base"
     pagecolor="#ffffff"
     bordercolor="#666666"
     borderopacity="1.0"
     inkscape:pageopacity="0.0"
     inkscape:pageshadow="2"
     inkscape:zoom="6.052834"
     inkscape:cx="20.735815"
     inkscape:cy="22.231393"
     inkscape:current-layer="layer1"
     showgrid="true"
     inkscape:grid-bbox="true"
     inkscape:document-units="px"
     inkscape:snap-grids="false"
     inkscape:window-width="786"
     inkscape:window-height="786"
     inkscape:window-x="327"
     inkscape:window-y="97"
     inkscape:window-maximized="0">
    <inkscape:grid
       type="xygrid"
       id="grid2993" />
  </sodipodi:namedview>
  <metadata
     id="metadata2990">
    <rdf:RDF>
      <cc:Work
         rdf:about="">
        <dc:format>image/svg+xml</dc:format>
        <dc:type
           rdf:resource="http://purl.org/dc/dcmitype/StillImage" />
        <dc:title></dc:title>
      </cc:Work>
    </rdf:RDF>
  </metadata>
  <g
     id="layer1"
     inkscape:label="Layer 1"
     inkscape:groupmode="layer"
     style="display:inline">
    <path
       style="fill:#0f4c80;fill-opacity:1;stroke:#000000;stroke-width:1;stroke-linecap:butt;stroke-linejoin:miter;stroke-miterlimit:4;stroke-opacity:1;stroke-dasharray:none"
       d="m 29.330819,25.023061 -5.4,-5.8 -10.8,11.6 -10.8000003,-11.6 10.8000003,-11.6000006 -5.4000003,-5.8 21.6000003,0 z"
       id="path2997"
       inkscape:connector-curvature="0" />
    <path
       style="fill:#0f4c80;fill-opacity:0;stroke-width:1;stroke-miterlimit:4;stroke-dasharray:none"
       d="M 8.6486753,25.156416 C 6.2070573,22.537365 3.976871,20.121875 3.6927057,19.78866 L 3.1760417,19.182817 8.5645695,13.40225 13.953097,7.6216827 12.25486,5.8057024 C 11.32083,4.8069131 10.225981,3.6217268 9.8218624,3.1719551 l -0.7347611,-0.8177669 9.8276367,0 9.827636,0 0,10.5412968 0,10.541297 -0.402386,-0.377624 c -0.221314,-0.207693 -1.288376,-1.342046 -2.371248,-2.520783 -1.082873,-1.178738 -2.01214,-2.125011 -2.065036,-2.102829 -0.0529,0.02218 -2.495102,2.616296 -5.427124,5.764699 -2.932021,3.148402 -5.343919,5.722953 -5.359773,5.721225 -0.01586,-0.0017 -2.026514,-2.146002 -4.4681317,-4.765054 z"
       id="path3767"
       inkscape:connector-curvature="0" />
    <path
       style="fill:#0f4c80;fill-opacity:0;stroke-width:1;stroke-miterlimit:4;stroke-dasharray:none"
       d="M 8.6486753,25.156416 C 6.2070573,22.537365 3.976871,20.121875 3.6927057,19.78866 L 3.1760417,19.182817 8.5645695,13.40225 13.953097,7.6216827 12.25486,5.8057024 C 11.32083,4.8069131 10.225981,3.6217268 9.8218624,3.1719551 l -0.7347611,-0.8177669 9.8276367,0 9.827636,0 0,10.5412968 0,10.541297 -0.402386,-0.377624 c -0.221314,-0.207693 -1.288376,-1.342046 -2.371248,-2.520783 -1.082873,-1.178738 -2.01214,-2.125011 -2.065036,-2.102829 -0.0529,0.02218 -2.495102,2.616296 -5.427124,5.764699 -2.932021,3.148402 -5.343919,5.722953 -5.359773,5.721225 -0.01586,-0.0017 -2.026514,-2.146002 -4.4681317,-4.765054 z"
       id="path3769"
       inkscape:connector-curvature="0" />
    <path
       style="fill:#0f4c80;fill-opacity:0;stroke-width:1;stroke-miterlimit:4;stroke-dasharray:none"
       d="M 8.6486753,25.156416 C 6.2070573,22.537365 3.976871,20.121875 3.6927057,19.78866 L 3.1760417,19.182817 8.5645695,13.40225 13.953097,7.6216827 12.25486,5.8057024 C 11.32083,4.8069131 10.225981,3.6217268 9.8218624,3.1719551 l -0.7347611,-0.8177669 9.8276367,0 9.827636,0 0,10.5412968 0,10.541297 -0.402386,-0.377624 c -0.221314,-0.207693 -1.288376,-1.342046 -2.371248,-2.520783 -1.082873,-1.178738 -2.01214,-2.125011 -2.065036,-2.102829 -0.0529,0.02218 -2.495102,2.616296 -5.427124,5.764699 -2.932021,3.148402 -5.343919,5.722953 -5.359773,5.721225 -0.01586,-0.0017 -2.026514,-2.146002 -4.4681317,-4.765054 z"
       id="path3771"
       inkscape:connector-curvature="0" />
    <path
       style="fill:#0f4c80;fill-opacity:0;stroke-width:1;stroke-miterlimit:4;stroke-dasharray:none"
       d="M 8.6486753,25.156416 C 6.2070573,22.537365 3.976871,20.121875 3.6927057,19.78866 L 3.1760417,19.182817 8.5645695,13.40225 13.953097,7.6216827 12.25486,5.8057024 C 11.32083,4.8069131 10.225981,3.6217268 9.8218624,3.1719551 l -0.7347611,-0.8177669 9.8276367,0 9.827636,0 0,10.5412968 0,10.541297 -0.402386,-0.377624 c -0.221314,-0.207693 -1.288376,-1.342046 -2.371248,-2.520783 -1.082873,-1.178738 -2.01214,-2.125011 -2.065036,-2.102829 -0.0529,0.02218 -2.495102,2.616296 -5.427124,5.764699 -2.932021,3.148402 -5.343919,5.722953 -5.359773,5.721225 -0.01586,-0.0017 -2.026514,-2.146002 -4.4681317,-4.765054 z"
       id="path3773"
       inkscape:connector-curvature="0" />
    <path
       style="fill:#0f4c80;fill-opacity:0;stroke-width:1;stroke-miterlimit:4;stroke-dasharray:none"
       d="M 8.091626,25.996319 C 5.3593904,23.059468 2.8233659,20.332234 2.4560159,19.935801 L 1.7881067,19.215015 7.1265136,13.487754 C 10.062637,10.337761 12.482231,7.7181541 12.503389,7.6664063 12.524546,7.6146585 11.264667,6.2054805 9.7036571,4.5348997 L 6.8654575,1.4974802 18.296154,1.4575212 c 6.286884,-0.021977 11.454947,-0.015709 11.484586,0.01393 0.02964,0.029639 0.03594,5.5763958 0.014,12.3261268 l -0.0399,12.272239 -2.851445,-3.057087 c -1.568295,-1.681397 -2.908147,-3.057085 -2.97745,-3.057085 -0.0693,0 -2.489052,2.540919 -5.377219,5.646485 -2.888167,3.105567 -5.304807,5.666159 -5.37031,5.690203 -0.0655,0.02404 -2.354562,-2.359163 -5.086797,-5.296014 l 0,0 z m 9.919186,-0.995115 c 2.604033,-2.793544 4.994331,-5.36951 5.311774,-5.724367 l 0.577168,-0.645195 1.679602,1.791299 c 0.923781,0.985214 2.047005,2.176817 2.496054,2.648006 l 0.81645,0.856709 0.0031,-10.864617 0.0031,-10.8646159 -10.059829,0 c -5.58049,0 -10.0367112,0.059874 -10.0079087,0.1344658 0.028557,0.073956 1.1033362,1.265471 2.3883987,2.6478107 1.285062,1.3823397 2.336476,2.5727941 2.336476,2.6454542 0,0.07266 -2.398831,2.7095812 -5.3307358,5.8598252 l -5.3307359,5.727717 1.0471954,1.142194 c 4.6549174,5.0772 9.0207633,9.705526 9.1632113,9.714116 0.0946,0.0057 2.302568,-2.275256 4.906601,-5.068802 l 0,0 z"
       id="path3775"
       inkscape:connector-curvature="0" />
    <path
       style="fill:#0f4c80;fill-opacity:0;stroke-width:1;stroke-miterlimit:4;stroke-dasharray:none"
       d="M 8.091626,25.996319 C 5.3593904,23.059468 2.8233659,20.332234 2.4560159,19.935801 L 1.7881067,19.215015 7.1265136,13.487754 C 10.062637,10.337761 12.482231,7.7181541 12.503389,7.6664063 12.524546,7.6146585 11.264667,6.2054805 9.7036571,4.5348997 L 6.8654575,1.4974802 18.296154,1.4575212 c 6.286884,-0.021977 11.454947,-0.015709 11.484586,0.01393 0.02964,0.029639 0.03594,5.5763958 0.014,12.3261268 l -0.0399,12.272239 -2.851445,-3.057087 c -1.568295,-1.681397 -2.908147,-3.057085 -2.97745,-3.057085 -0.0693,0 -2.489052,2.540919 -5.377219,5.646485 -2.888167,3.105567 -5.304807,5.666159 -5.37031,5.690203 -0.0655,0.02404 -2.354562,-2.359163 -5.086797,-5.296014 l 0,0 z m 9.919186,-0.995115 c 2.604033,-2.793544 4.994331,-5.36951 5.311774,-5.724367 l 0.577168,-0.645195 1.679602,1.791299 c 0.923781,0.985214 2.047005,2.176817 2.496054,2.648006 l 0.81645,0.856709 0.0031,-10.864617 0.0031,-10.8646159 -10.059829,0 c -5.58049,0 -10.0367112,0.059874 -10.0079087,0.1344658 0.028557,0.073956 1.1033362,1.265471 2.3883987,2.6478107 1.285062,1.3823397 2.336476,2.5727941 2.336476,2.6454542 0,0.07266 -2.398831,2.7095812 -5.3307358,5.8598252 l -5.3307359,5.727717 1.0471954,1.142194 c 4.6549174,5.0772 9.0207633,9.705526 9.1632113,9.714116 0.0946,0.0057 2.302568,-2.275256 4.906601,-5.068802 l 0,0 z"
       id="path3777"
       inkscape:connector-curvature="0" />
    <path
       style="fill:#0f4c80;fill-opacity:0;stroke-width:1;stroke-miterlimit:4;stroke-dasharray:none"
       d="M 8.6486753,25.156416 C 6.2070573,22.537365 3.976871,20.121875 3.6927057,19.78866 L 3.1760417,19.182817 8.5645695,13.40225 13.953097,7.6216827 12.25486,5.8057024 C 11.32083,4.8069131 10.225981,3.6217268 9.8218624,3.1719551 l -0.7347611,-0.8177669 9.8276367,0 9.827636,0 0,10.5412968 0,10.541297 -0.402386,-0.377624 c -0.221314,-0.207693 -1.288376,-1.342046 -2.371248,-2.520783 -1.082873,-1.178738 -2.01214,-2.125011 -2.065036,-2.102829 -0.0529,0.02218 -2.495102,2.616296 -5.427124,5.764699 -2.932021,3.148402 -5.343919,5.722953 -5.359773,5.721225 -0.01586,-0.0017 -2.026514,-2.146002 -4.4681317,-4.765054 z"
       id="path3779"
       inkscape:connector-curvature="0" />
    <path
       style="fill:#0f4c80;fill-opacity:0;stroke-width:1;stroke-miterlimit:4;stroke-dasharray:none"
       d="M 8.6486753,25.156416 C 6.2070573,22.537365 3.976871,20.121875 3.6927057,19.78866 L 3.1760417,19.182817 8.5645695,13.40225 13.953097,7.6216827 12.25486,5.8057024 C 11.32083,4.8069131 10.225981,3.6217268 9.8218624,3.1719551 l -0.7347611,-0.8177669 9.8276367,0 9.827636,0 0,10.5412968 0,10.541297 -0.402386,-0.377624 c -0.221314,-0.207693 -1.288376,-1.342046 -2.371248,-2.520783 -1.082873,-1.178738 -2.01214,-2.125011 -2.065036,-2.102829 -0.0529,0.02218 -2.495102,2.616296 -5.427124,5.764699 -2.932021,3.148402 -5.343919,5.722953 -5.359773,5.721225 -0.01586,-0.0017 -2.026514,-2.146002 -4.4681317,-4.765054 z"
       id="path3781"
       inkscape:connector-curvature="0" />
    <path
       style="fill:#0f4c80;fill-opacity:0;stroke-width:1;stroke-miterlimit:4;stroke-dasharray:none"
       d="M 8.6486753,25.156416 C 6.2070573,22.537365 3.976871,20.121875 3.6927057,19.78866 L 3.1760417,19.182817 8.5645695,13.40225 13.953097,7.6216827 12.25486,5.8057024 C 11.32083,4.8069131 10.225981,3.6217268 9.8218624,3.1719551 l -0.7347611,-0.8177669 9.8276367,0 9.827636,0 0,10.5412968 0,10.541297 -0.402386,-0.377624 c -0.221314,-0.207693 -1.288376,-1.342046 -2.371248,-2.520783 -1.082873,-1.178738 -2.01214,-2.125011 -2.065036,-2.102829 -0.0529,0.02218 -2.495102,2.616296 -5.427124,5.764699 -2.932021,3.148402 -5.343919,5.722953 -5.359773,5.721225 -0.01586,-0.0017 -2.026514,-2.146002 -4.4681317,-4.765054 z"
       id="path3783"
       inkscape:connector-curvature="0" />
    <path
       style="fill:#0f4c80;fill-opacity:0;stroke-width:1;stroke-miterlimit:4;stroke-dasharray:none"
       d="M 8.1459358,24.597495 C 5.4153972,21.667582 3.1813201,19.252939 3.1813201,19.231623 c 0,-0.02131 2.3832061,-2.602505 5.2960136,-5.735976 C 11.390141,10.362176 13.794418,7.7369112 13.820171,7.661726 13.845924,7.5865408 12.812033,6.398143 11.522636,5.0208417 10.233238,3.6435404 9.1782767,2.480102 9.1782767,2.4354229 c 0,-0.044679 4.4159403,-0.081235 9.8132013,-0.081235 l 9.813202,0 0,10.6121721 0,10.612171 -1.359376,-1.46097 c -0.747657,-0.803535 -1.852393,-1.97289 -2.454967,-2.598566 l -1.095591,-1.137594 -5.364952,5.771606 c -2.950724,3.174382 -5.377168,5.771605 -5.392098,5.771605 -0.01493,0 -2.261221,-2.397203 -4.9917602,-5.327117 z"
       id="path3785"
       inkscape:connector-curvature="0" />
  </g>
</svg>
